<svg width="480" height="480" xmlns="http://www.w3.org/2000/svg">

 <g>
  <title>background</title>
  <rect fill="none" id="canvas_background" height="602" width="802" y="-1" x="-1"/>
 </g>
 <g>
  <title>Layer 1</title>
  <rect id="svg_1" fill="#bac8d3" ry="20" rx="20" height="480" width="480"/>
  <g id="svg_2" transform="matrix(0.7,0,0,0.7,71.99999993716636,71.99999993716636) ">
   <g id="svg_3">
    <g id="svg_4">
     <path id="svg_5" fill="#000000" d="m472.004,0c-0.001,0 -0.003,0 -0.004,0l-464,0c-4.417,-0.001 -7.999,3.579 -8,7.996c0,0.001 0,0.003 0,0.004l0,160l16,0l0,-152l448,0l0,176l-280,0l0,16l288,0c4.417,0.001 7.999,-3.579 8,-7.996c0,-0.001 0,-0.003 0,-0.004l0,-192c0.001,-4.417 -3.579,-7.999 -7.996,-8z"/>
    </g>
   </g>
   <g id="svg_6">
    <g id="svg_7">
     <rect id="svg_8" fill="#000000" height="16" width="160" y="40" x="264"/>
    </g>
   </g>
   <g id="svg_9">
    <g id="svg_10">
     <rect id="svg_11" fill="#000000" height="16" width="160" y="88" x="288"/>
    </g>
   </g>
   <g id="svg_12">
    <g id="svg_13">
     <rect id="svg_14" fill="#000000" height="16" width="160" y="136" x="256"/>
    </g>
   </g>
   <g id="svg_15">
    <g id="svg_16">
     <path id="svg_17" fill="#000000" d="m255.362,68.974c-5.477,-13.165 -20.589,-19.397 -33.753,-13.92c-0.225,0.094 -0.449,0.19 -0.671,0.29l-64.868,33.65c2.558,-5.302 3.901,-11.108 3.93,-16.994c0,-22.091 -17.909,-40 -40,-40s-40,17.909 -40,40c0.03,8.683 2.913,17.116 8.205,24l-0.333,0c-22.708,0.152 -42.979,14.269 -50.996,35.516l-21.356,73.609c-5.084,13.206 1.5,28.034 14.707,33.118c6.022,2.318 12.697,2.279 18.692,-0.11c6.888,-2.775 12.248,-8.379 14.715,-15.383l8.366,-26.625l0,115.783c-6.884,-5.291 -15.317,-8.174 -24,-8.205c-22.058,-0.033 -39.967,17.822 -40,39.881c-0.016,10.803 4.344,21.151 12.087,28.685c-12.288,6.278 -20.039,18.894 -20.087,32.692l0,67.039c-0.001,4.417 3.579,7.999 7.996,8c0.001,0 0.003,0 0.004,0l80,0c4.417,0.001 7.999,-3.579 8,-7.996c0,-0.001 0,-0.003 0,-0.004l0,-67.039c-0.039,-11.339 -5.307,-22.025 -14.276,-28.961l60.553,0c-8.97,6.936 -14.238,17.622 -14.276,28.961l0,67.039c-0.001,4.417 3.579,7.999 7.996,8c0.001,0 0.003,0 0.004,0l80,0c4.417,0.001 7.999,-3.579 8,-7.996c0,-0.001 0,-0.003 0,-0.004l0,-67.039c-0.048,-13.798 -7.799,-26.414 -20.087,-32.692c15.795,-15.417 16.102,-40.72 0.685,-56.515c-9.494,-9.727 -23.281,-13.962 -36.598,-11.242l0,-163.653l73.441,-38.133c13.164,-5.476 19.396,-20.588 13.92,-33.752zm-135.362,-20.974c13.255,0 24,10.745 24,24s-10.745,24 -24,24c-13.249,-0.014 -23.986,-10.751 -24,-24c0,-13.255 10.745,-24 24,-24zm-72,271.703c13.255,0 24,10.745 24,24s-10.745,24 -24,24s-24,-10.745 -24,-24c0.014,-13.249 10.751,-23.985 24,-24zm32,144.297l-64,0l0,-59.039c0.016,-11.571 9.393,-20.947 20.965,-20.961l22.07,0c11.571,0.014 20.949,9.39 20.965,20.961l0,59.039zm128,-59.039l0,59.039l-64,0l0,-59.039c0.016,-11.571 9.393,-20.947 20.965,-20.961l22.07,0c11.572,0.014 20.949,9.39 20.965,20.961zm-32,-85.258c13.249,0.014 23.986,10.751 24,24c0,13.255 -10.745,24 -24,24s-24,-10.745 -24,-24s10.745,-24 24,-24zm64.723,-237.383c-1.071,2.748 -3.27,4.905 -6.039,5.922l-78.367,40.656c-2.652,1.376 -4.317,4.115 -4.317,7.102l0,175.908c-14.985,11.08 -20.176,31.133 -12.448,48.092l-11.552,0l0,-136l-16,0l0,136l-27.552,0c2.276,-5.03 3.475,-10.48 3.522,-16l0.03,0l0,-200c-0.001,-4.419 -3.584,-8 -8.002,-7.999c-3.493,0.001 -6.582,2.268 -7.63,5.601l-23.888,76.015c-1.81,4.992 -7.325,7.572 -12.317,5.761c-0.35,-0.127 -0.693,-0.274 -1.027,-0.441c-4.615,-2.385 -6.574,-7.953 -4.468,-12.703l21.355,-73.609c5.759,-14.79 19.976,-24.556 35.848,-24.625l56.645,0c1.282,0.002 2.546,-0.307 3.684,-0.898l79.512,-41.273c4.77,-1.99 10.268,0.046 12.59,4.664c1.231,2.434 1.384,5.274 0.421,7.827z"/>
    </g>
   </g>
   <g id="svg_18">
    <g id="svg_19">
     <path id="svg_20" fill="#000000" d="m331.913,372.269c15.823,-15.416 16.153,-40.741 0.737,-56.564c-15.416,-15.823 -40.741,-16.153 -56.564,-0.737c-15.823,15.416 -16.153,40.741 -0.737,56.564c0.243,0.249 0.489,0.495 0.738,0.737c-12.287,6.278 -20.039,18.894 -20.087,32.692l0,67.039c-0.001,4.417 3.579,7.999 7.996,8c0.001,0 0.003,0 0.004,0l80,0c4.417,0.001 7.999,-3.579 8,-7.996c0,-0.001 0,-0.003 0,-0.004l0,-67.039c-0.048,-13.798 -7.799,-26.414 -20.087,-32.692zm-27.913,-52.566c13.255,0 24,10.745 24,24s-10.745,24 -24,24s-24,-10.745 -24,-24c0.014,-13.249 10.751,-23.985 24,-24zm32,144.297l-64,0l0,-59.039c0.016,-11.571 9.393,-20.947 20.965,-20.961l22.07,0c11.571,0.014 20.949,9.39 20.965,20.961l0,59.039z"/>
    </g>
   </g>
   <g id="svg_21">
    <g id="svg_22">
     <path id="svg_23" fill="#000000" d="m459.913,372.269c15.823,-15.416 16.153,-40.741 0.737,-56.564c-15.416,-15.823 -40.741,-16.153 -56.564,-0.737c-15.823,15.416 -16.153,40.741 -0.737,56.564c0.243,0.249 0.489,0.495 0.738,0.737c-12.287,6.278 -20.039,18.894 -20.087,32.692l0,67.039c-0.001,4.417 3.579,7.999 7.996,8c0.001,0 0.003,0 0.004,0l80,0c4.417,0.001 7.999,-3.579 8,-7.996c0,-0.001 0,-0.003 0,-0.004l0,-67.039c-0.048,-13.798 -7.799,-26.414 -20.087,-32.692zm-27.913,-52.566c13.255,0 24,10.745 24,24s-10.745,24 -24,24s-24,-10.745 -24,-24c0.014,-13.249 10.751,-23.985 24,-24zm32,144.297l-64,0l0,-59.039c0.016,-11.571 9.393,-20.947 20.965,-20.961l22.07,0c11.571,0.014 20.949,9.39 20.965,20.961l0,59.039z"/>
    </g>
   </g>
   <g id="svg_24"/>
   <g id="svg_25"/>
   <g id="svg_26"/>
   <g id="svg_27"/>
   <g id="svg_28"/>
   <g id="svg_29"/>
   <g id="svg_30"/>
   <g id="svg_31"/>
   <g id="svg_32"/>
   <g id="svg_33"/>
   <g id="svg_34"/>
   <g id="svg_35"/>
   <g id="svg_36"/>
   <g id="svg_37"/>
   <g id="svg_38"/>
  </g>
  <line stroke="#000" stroke-linecap="undefined" stroke-linejoin="undefined" id="svg_40" y2="469.85" x2="468.5" y1="7.85" x1="6.5" fill-opacity="null" stroke-opacity="null" stroke-width="15" fill="none"/>
 </g>
</svg>